<mxfile host="app.diagrams.net" modified="2024-04-10T17:31:14.715Z" agent="Mozilla/5.0 (Macintosh; Intel Mac OS X 10_15_7) AppleWebKit/537.36 (KHTML, like Gecko) Chrome/123.0.0.0 Safari/537.36" etag="DLat3SjT82xBsLJvUP_8" version="24.2.3" type="github">
  <diagram name="Page-1" id="lau2wh2djgcax9t4yvG-">
    <mxGraphModel dx="1313" dy="782" grid="1" gridSize="10" guides="1" tooltips="1" connect="1" arrows="1" fold="1" page="1" pageScale="1" pageWidth="850" pageHeight="1100" math="0" shadow="0">
      <root>
        <mxCell id="0" />
        <mxCell id="1" parent="0" />
        <mxCell id="SnCvXV2NnRFrrWXewPJj-1" style="edgeStyle=orthogonalEdgeStyle;rounded=0;orthogonalLoop=1;jettySize=auto;html=1;exitX=1;exitY=0.5;exitDx=0;exitDy=0;entryX=0.5;entryY=0;entryDx=0;entryDy=0;fontFamily=Times New Roman;fontSize=11;endArrow=classic;endFill=1;strokeColor=#666666;strokeWidth=1;fontColor=#575757;" edge="1" parent="1" source="SnCvXV2NnRFrrWXewPJj-3" target="SnCvXV2NnRFrrWXewPJj-7">
          <mxGeometry relative="1" as="geometry" />
        </mxCell>
        <mxCell id="SnCvXV2NnRFrrWXewPJj-2" style="edgeStyle=orthogonalEdgeStyle;rounded=0;orthogonalLoop=1;jettySize=auto;html=1;exitX=0;exitY=0.5;exitDx=0;exitDy=0;fontFamily=Times New Roman;fontSize=11;endArrow=classic;endFill=1;strokeColor=#666666;strokeWidth=1;fontColor=#575757;entryX=0.5;entryY=0;entryDx=0;entryDy=0;" edge="1" parent="1" source="SnCvXV2NnRFrrWXewPJj-3" target="SnCvXV2NnRFrrWXewPJj-5">
          <mxGeometry relative="1" as="geometry">
            <mxPoint x="275" y="130" as="targetPoint" />
            <Array as="points">
              <mxPoint x="275" y="95" />
            </Array>
          </mxGeometry>
        </mxCell>
        <mxCell id="SnCvXV2NnRFrrWXewPJj-3" value="&lt;font style=&quot;font-size: 12px;&quot;&gt;Participant recruitment*&lt;br&gt;(&lt;span style=&quot;text-align: start;&quot;&gt;Aug 2024â€“April&lt;/span&gt;&lt;span style=&quot;text-align: start;&quot;&gt;&amp;nbsp;&lt;/span&gt;&lt;span style=&quot;text-align: start;&quot;&gt;&lt;/span&gt;2025)&lt;/font&gt;" style="rounded=1;whiteSpace=wrap;html=1;fontFamily=Times New Roman;fillColor=#e1d5e7;strokeColor=#9673a6;fontColor=#575757;" vertex="1" parent="1">
          <mxGeometry x="295" y="70" width="260" height="50" as="geometry" />
        </mxCell>
        <mxCell id="SnCvXV2NnRFrrWXewPJj-4" style="edgeStyle=orthogonalEdgeStyle;rounded=0;orthogonalLoop=1;jettySize=auto;html=1;exitX=1;exitY=0.5;exitDx=0;exitDy=0;entryX=0.25;entryY=0;entryDx=0;entryDy=0;fontFamily=Times New Roman;fontSize=11;endArrow=classic;endFill=1;strokeColor=#666666;strokeWidth=1;fontColor=#575757;" edge="1" parent="1" source="SnCvXV2NnRFrrWXewPJj-5" target="SnCvXV2NnRFrrWXewPJj-9">
          <mxGeometry relative="1" as="geometry" />
        </mxCell>
        <mxCell id="SnCvXV2NnRFrrWXewPJj-5" value="&lt;div style=&quot;&quot;&gt;&lt;span style=&quot;background-color: initial;&quot;&gt;In-person sessions&lt;/span&gt;&lt;/div&gt;&lt;span style=&quot;&quot;&gt;&lt;font style=&quot;font-size: 12px;&quot;&gt;(n = 50)&lt;/font&gt;&lt;/span&gt;" style="rounded=1;whiteSpace=wrap;html=1;fontFamily=Times New Roman;fillColor=#fff2cc;strokeColor=#d6b656;fontColor=#575757;align=center;" vertex="1" parent="1">
          <mxGeometry x="215" y="140" width="120" height="50" as="geometry" />
        </mxCell>
        <mxCell id="SnCvXV2NnRFrrWXewPJj-6" style="edgeStyle=orthogonalEdgeStyle;rounded=0;orthogonalLoop=1;jettySize=auto;html=1;exitX=0;exitY=0.5;exitDx=0;exitDy=0;entryX=0.75;entryY=0;entryDx=0;entryDy=0;fontFamily=Times New Roman;fontSize=12;fontColor=#575757;strokeColor=#666666;" edge="1" parent="1" source="SnCvXV2NnRFrrWXewPJj-7" target="SnCvXV2NnRFrrWXewPJj-9">
          <mxGeometry relative="1" as="geometry" />
        </mxCell>
        <mxCell id="SnCvXV2NnRFrrWXewPJj-7" value="&lt;span style=&quot;text-align: start;&quot;&gt;&lt;font style=&quot;font-size: 12px;&quot;&gt;Virtual sessions &lt;br&gt;(n = 50)&lt;/font&gt;&lt;/span&gt;" style="rounded=1;whiteSpace=wrap;html=1;fontFamily=Times New Roman;fillColor=#fff2cc;strokeColor=#d6b656;fontColor=#575757;" vertex="1" parent="1">
          <mxGeometry x="515" y="140" width="120" height="50" as="geometry" />
        </mxCell>
        <mxCell id="SnCvXV2NnRFrrWXewPJj-8" value="" style="edgeStyle=orthogonalEdgeStyle;rounded=0;orthogonalLoop=1;jettySize=auto;html=1;fontFamily=Times New Roman;fontSize=12;fontColor=#575757;strokeColor=#666666;" edge="1" parent="1" source="SnCvXV2NnRFrrWXewPJj-9" target="SnCvXV2NnRFrrWXewPJj-11">
          <mxGeometry relative="1" as="geometry" />
        </mxCell>
        <mxCell id="SnCvXV2NnRFrrWXewPJj-9" value="&lt;span style=&quot;text-align: start;&quot;&gt;&lt;font style=&quot;font-size: 12px;&quot;&gt;Complete a demographic and pre-session survey on awareness &amp;amp; behaviors and locust of control&lt;/font&gt;&lt;/span&gt;&lt;span style=&quot;font-size: medium; text-align: start;&quot;&gt;&lt;/span&gt;" style="whiteSpace=wrap;html=1;rounded=1;fontFamily=Times New Roman;fillColor=#dae8fc;strokeColor=#6c8ebf;fontColor=#575757;" vertex="1" parent="1">
          <mxGeometry x="295" y="210" width="260" height="50" as="geometry" />
        </mxCell>
        <mxCell id="SnCvXV2NnRFrrWXewPJj-10" value="" style="edgeStyle=orthogonalEdgeStyle;rounded=0;orthogonalLoop=1;jettySize=auto;html=1;fontFamily=Times New Roman;fontSize=12;fontColor=#575757;strokeColor=#666666;" edge="1" parent="1" source="SnCvXV2NnRFrrWXewPJj-11" target="SnCvXV2NnRFrrWXewPJj-13">
          <mxGeometry relative="1" as="geometry" />
        </mxCell>
        <mxCell id="SnCvXV2NnRFrrWXewPJj-11" value="&lt;span style=&quot;text-align: start;&quot;&gt;&lt;font style=&quot;font-size: 12px;&quot;&gt;Carry an air monitor and complete travel-activity diaries for 3 days (2 weekdays and 1 weekend day)&lt;/font&gt;&lt;/span&gt;&lt;span style=&quot;font-size: medium; text-align: start;&quot;&gt;&lt;/span&gt;" style="whiteSpace=wrap;html=1;rounded=1;fontFamily=Times New Roman;fillColor=#dae8fc;strokeColor=#6c8ebf;fontColor=#575757;" vertex="1" parent="1">
          <mxGeometry x="295" y="280" width="260" height="50" as="geometry" />
        </mxCell>
        <mxCell id="SnCvXV2NnRFrrWXewPJj-12" value="" style="edgeStyle=orthogonalEdgeStyle;rounded=0;orthogonalLoop=1;jettySize=auto;html=1;fontFamily=Times New Roman;fontSize=12;fontColor=#575757;strokeColor=#666666;" edge="1" parent="1" source="SnCvXV2NnRFrrWXewPJj-13" target="SnCvXV2NnRFrrWXewPJj-15">
          <mxGeometry relative="1" as="geometry" />
        </mxCell>
        <mxCell id="SnCvXV2NnRFrrWXewPJj-13" value="&lt;span style=&quot;text-align: start; font-family: &amp;quot;Times New Roman&amp;quot;, serif;&quot;&gt;&lt;font style=&quot;font-size: 12px;&quot;&gt;Perform data visualization and preliminary data analysis&lt;/font&gt;&lt;/span&gt;&lt;span style=&quot;font-size: medium; text-align: start;&quot;&gt;&lt;/span&gt;" style="whiteSpace=wrap;html=1;rounded=1;fontFamily=Times New Roman;fillColor=#e1d5e7;strokeColor=#9673a6;fontColor=#575757;" vertex="1" parent="1">
          <mxGeometry x="295" y="350" width="260" height="50" as="geometry" />
        </mxCell>
        <mxCell id="SnCvXV2NnRFrrWXewPJj-14" value="" style="edgeStyle=orthogonalEdgeStyle;rounded=0;orthogonalLoop=1;jettySize=auto;html=1;fontFamily=Times New Roman;fontSize=12;fontColor=#575757;strokeColor=#666666;" edge="1" parent="1" source="SnCvXV2NnRFrrWXewPJj-15" target="SnCvXV2NnRFrrWXewPJj-17">
          <mxGeometry relative="1" as="geometry" />
        </mxCell>
        <mxCell id="SnCvXV2NnRFrrWXewPJj-15" value="&lt;span style=&quot;text-align: start; font-family: &amp;quot;Times New Roman&amp;quot;, serif;&quot;&gt;&lt;font style=&quot;font-size: 12px;&quot;&gt;Mail results to participants&lt;/font&gt;&lt;/span&gt;&lt;span style=&quot;font-size: medium; text-align: start;&quot;&gt;&lt;/span&gt;" style="whiteSpace=wrap;html=1;rounded=1;fontFamily=Times New Roman;fillColor=#e1d5e7;strokeColor=#9673a6;fontColor=#575757;" vertex="1" parent="1">
          <mxGeometry x="295" y="420" width="260" height="50" as="geometry" />
        </mxCell>
        <mxCell id="SnCvXV2NnRFrrWXewPJj-16" value="" style="edgeStyle=orthogonalEdgeStyle;rounded=0;orthogonalLoop=1;jettySize=auto;html=1;fontFamily=Times New Roman;fontSize=12;fontColor=#575757;strokeColor=#666666;" edge="1" parent="1" source="SnCvXV2NnRFrrWXewPJj-17" target="SnCvXV2NnRFrrWXewPJj-19">
          <mxGeometry relative="1" as="geometry" />
        </mxCell>
        <mxCell id="SnCvXV2NnRFrrWXewPJj-17" value="&lt;span style=&quot;text-align: start;&quot;&gt;&lt;font style=&quot;font-size: 12px;&quot;&gt;Engage participants in data interpretation&amp;nbsp;&lt;/font&gt;&lt;/span&gt;&lt;div&gt;&lt;span style=&quot;text-align: start;&quot;&gt;&lt;font style=&quot;font-size: 12px;&quot;&gt;&lt;i&gt;(phone or zoom call)&lt;/i&gt;&lt;/font&gt;&lt;/span&gt;&lt;span style=&quot;font-size: medium; text-align: start;&quot;&gt;&lt;/span&gt;&lt;/div&gt;" style="whiteSpace=wrap;html=1;rounded=1;fontFamily=Times New Roman;fillColor=#fff2cc;strokeColor=#d6b656;fontColor=#575757;" vertex="1" parent="1">
          <mxGeometry x="295" y="490" width="260" height="50" as="geometry" />
        </mxCell>
        <mxCell id="SnCvXV2NnRFrrWXewPJj-19" value="&lt;span style=&quot;text-align: start; font-family: &amp;quot;Times New Roman&amp;quot;, serif;&quot;&gt;&lt;font style=&quot;font-size: 12px;&quot;&gt;Complete a post-session survey on awareness and behaviors&lt;/font&gt;&lt;/span&gt;&lt;span style=&quot;font-size: medium; text-align: start;&quot;&gt;&lt;/span&gt;" style="whiteSpace=wrap;html=1;rounded=1;fontFamily=Times New Roman;fillColor=#dae8fc;strokeColor=#6c8ebf;fontColor=#575757;" vertex="1" parent="1">
          <mxGeometry x="295" y="569" width="260" height="50" as="geometry" />
        </mxCell>
        <mxCell id="SnCvXV2NnRFrrWXewPJj-21" style="edgeStyle=orthogonalEdgeStyle;rounded=1;orthogonalLoop=1;jettySize=auto;html=1;exitX=0;exitY=0.5;exitDx=0;exitDy=0;fontFamily=Times New Roman;fontSize=12;strokeColor=#666666;endArrow=none;endFill=0;fontColor=#575757;" edge="1" parent="1" source="SnCvXV2NnRFrrWXewPJj-22">
          <mxGeometry relative="1" as="geometry">
            <mxPoint x="425" y="551.7894736842105" as="targetPoint" />
          </mxGeometry>
        </mxCell>
        <mxCell id="SnCvXV2NnRFrrWXewPJj-22" value="After 4 weeks" style="text;html=1;strokeColor=none;fillColor=none;align=center;verticalAlign=middle;whiteSpace=wrap;rounded=0;fontFamily=Times New Roman;fontSize=10;fontColor=#575757;" vertex="1" parent="1">
          <mxGeometry x="465" y="537" width="60" height="30" as="geometry" />
        </mxCell>
        <mxCell id="SnCvXV2NnRFrrWXewPJj-23" value="Activities performed by:&amp;nbsp;" style="text;html=1;strokeColor=none;fillColor=none;align=center;verticalAlign=middle;whiteSpace=wrap;rounded=0;fontFamily=Times New Roman;fontSize=11;fontColor=#575757;" vertex="1" parent="1">
          <mxGeometry x="295" y="710" width="260" height="30" as="geometry" />
        </mxCell>
        <mxCell id="SnCvXV2NnRFrrWXewPJj-24" value="Research team" style="text;html=1;strokeColor=none;fillColor=none;align=center;verticalAlign=middle;whiteSpace=wrap;rounded=0;fontFamily=Times New Roman;fontSize=11;fontColor=#575757;" vertex="1" parent="1">
          <mxGeometry x="245" y="740" width="90" height="30" as="geometry" />
        </mxCell>
        <mxCell id="SnCvXV2NnRFrrWXewPJj-25" value="Participants" style="text;html=1;strokeColor=none;fillColor=none;align=center;verticalAlign=middle;whiteSpace=wrap;rounded=0;fontFamily=Times New Roman;fontSize=11;fontColor=#575757;" vertex="1" parent="1">
          <mxGeometry x="545" y="740" width="90" height="30" as="geometry" />
        </mxCell>
        <mxCell id="SnCvXV2NnRFrrWXewPJj-26" value="&lt;span style=&quot;text-align: start; font-size: 11px;&quot;&gt;&lt;font style=&quot;font-size: 11px;&quot;&gt;Research team &amp;amp; participants&lt;/font&gt;&lt;/span&gt;&lt;span style=&quot;font-size: 11px; text-align: start;&quot;&gt;&lt;/span&gt;" style="text;html=1;strokeColor=none;fillColor=none;align=center;verticalAlign=middle;whiteSpace=wrap;rounded=0;fontFamily=Times New Roman;fontSize=11;fontColor=#575757;" vertex="1" parent="1">
          <mxGeometry x="372.5" y="740" width="135" height="30" as="geometry" />
        </mxCell>
        <mxCell id="SnCvXV2NnRFrrWXewPJj-27" value="" style="rounded=1;whiteSpace=wrap;html=1;fontFamily=Times New Roman;fontSize=11;fillColor=#e1d5e7;strokeColor=#9673a6;fontColor=#575757;" vertex="1" parent="1">
          <mxGeometry x="223" y="745" width="30" height="20" as="geometry" />
        </mxCell>
        <mxCell id="SnCvXV2NnRFrrWXewPJj-28" value="" style="rounded=1;whiteSpace=wrap;html=1;fontFamily=Times New Roman;fontSize=11;fillColor=#dae8fc;strokeColor=#6c8ebf;fontColor=#575757;" vertex="1" parent="1">
          <mxGeometry x="532" y="745" width="30" height="20" as="geometry" />
        </mxCell>
        <mxCell id="SnCvXV2NnRFrrWXewPJj-29" value="" style="rounded=1;whiteSpace=wrap;html=1;fontFamily=Times New Roman;fontSize=11;fillColor=#fff2cc;strokeColor=#d6b656;fontColor=#575757;" vertex="1" parent="1">
          <mxGeometry x="342.5" y="745" width="30" height="20" as="geometry" />
        </mxCell>
        <mxCell id="SnCvXV2NnRFrrWXewPJj-59" value="&lt;i style=&quot;font-size: 11px;&quot;&gt;&lt;font style=&quot;font-size: 11px;&quot;&gt;Contingent upon funding&lt;/font&gt;&lt;/i&gt;" style="text;html=1;align=center;verticalAlign=middle;resizable=0;points=[];autosize=1;strokeColor=none;fillColor=none;fontSize=11;fontColor=#575757;" vertex="1" parent="1">
          <mxGeometry x="355" y="140" width="140" height="30" as="geometry" />
        </mxCell>
        <mxCell id="SnCvXV2NnRFrrWXewPJj-60" value="" style="edgeStyle=orthogonalEdgeStyle;rounded=0;orthogonalLoop=1;jettySize=auto;html=1;fontFamily=Times New Roman;fontSize=12;fontColor=#575757;strokeColor=#666666;entryX=0.5;entryY=0;entryDx=0;entryDy=0;" edge="1" parent="1" target="SnCvXV2NnRFrrWXewPJj-61">
          <mxGeometry relative="1" as="geometry">
            <mxPoint x="425" y="619" as="sourcePoint" />
            <mxPoint x="425" y="630" as="targetPoint" />
          </mxGeometry>
        </mxCell>
        <mxCell id="SnCvXV2NnRFrrWXewPJj-61" value="&lt;span style=&quot;text-align: start;&quot;&gt;&lt;font style=&quot;font-size: 12px;&quot;&gt;Carry an air monitor and complete travel-activity diaries for 3 days (2 weekdays and 1 weekend day)&lt;/font&gt;&lt;/span&gt;&lt;span style=&quot;font-size: medium; text-align: start;&quot;&gt;&lt;/span&gt;" style="whiteSpace=wrap;html=1;rounded=1;fontFamily=Times New Roman;fillColor=#dae8fc;strokeColor=#6c8ebf;fontColor=#575757;" vertex="1" parent="1">
          <mxGeometry x="295" y="639" width="260" height="50" as="geometry" />
        </mxCell>
      </root>
    </mxGraphModel>
  </diagram>
</mxfile>
